<svg width="18" height="18" viewBox="0 0 18 18" fill="none" xmlns="http://www.w3.org/2000/svg">
<g id="calendar_month">
<mask id="mask0_1_12820" style="mask-type:alpha" maskUnits="userSpaceOnUse" x="0" y="0" width="18" height="18">
<rect id="Bounding box" width="17.4299" height="18" fill="#D9D9D9"/>
</mask>
<g mask="url(#mask0_1_12820)">
<path id="calendar_month_2" d="M3.6312 16.5303C3.23177 16.5303 2.88983 16.3834 2.60538 16.0896C2.32093 15.7959 2.17871 15.4428 2.17871 15.0303V4.53027C2.17871 4.11777 2.32093 3.76465 2.60538 3.4709C2.88983 3.17715 3.23177 3.03027 3.6312 3.03027H4.35744V1.53027H5.80993V3.03027H11.6199V1.53027H13.0724V3.03027H13.7986C14.1981 3.03027 14.54 3.17715 14.8244 3.4709C15.1089 3.76465 15.2511 4.11777 15.2511 4.53027V15.0303C15.2511 15.4428 15.1089 15.7959 14.8244 16.0896C14.54 16.3834 14.1981 16.5303 13.7986 16.5303H3.6312ZM3.6312 15.0303H13.7986V7.53027H3.6312V15.0303ZM3.6312 6.03027H13.7986V4.53027H3.6312V6.03027ZM8.71491 10.5303C8.50914 10.5303 8.33666 10.4584 8.19746 10.3146C8.05826 10.1709 7.98867 9.99277 7.98867 9.78027C7.98867 9.56777 8.05826 9.38965 8.19746 9.2459C8.33666 9.10215 8.50914 9.03027 8.71491 9.03027C8.92068 9.03027 9.09316 9.10215 9.23236 9.2459C9.37156 9.38965 9.44115 9.56777 9.44115 9.78027C9.44115 9.99277 9.37156 10.1709 9.23236 10.3146C9.09316 10.4584 8.92068 10.5303 8.71491 10.5303ZM5.80993 10.5303C5.60416 10.5303 5.43168 10.4584 5.29248 10.3146C5.15329 10.1709 5.08369 9.99277 5.08369 9.78027C5.08369 9.56777 5.15329 9.38965 5.29248 9.2459C5.43168 9.10215 5.60416 9.03027 5.80993 9.03027C6.0157 9.03027 6.18818 9.10215 6.32738 9.2459C6.46658 9.38965 6.53618 9.56777 6.53618 9.78027C6.53618 9.99277 6.46658 10.1709 6.32738 10.3146C6.18818 10.4584 6.0157 10.5303 5.80993 10.5303ZM11.6199 10.5303C11.4141 10.5303 11.2416 10.4584 11.1024 10.3146C10.9632 10.1709 10.8936 9.99277 10.8936 9.78027C10.8936 9.56777 10.9632 9.38965 11.1024 9.2459C11.2416 9.10215 11.4141 9.03027 11.6199 9.03027C11.8257 9.03027 11.9981 9.10215 12.1373 9.2459C12.2765 9.38965 12.3461 9.56777 12.3461 9.78027C12.3461 9.99277 12.2765 10.1709 12.1373 10.3146C11.9981 10.4584 11.8257 10.5303 11.6199 10.5303ZM8.71491 13.5303C8.50914 13.5303 8.33666 13.4584 8.19746 13.3146C8.05826 13.1709 7.98867 12.9928 7.98867 12.7803C7.98867 12.5678 8.05826 12.3896 8.19746 12.2459C8.33666 12.1021 8.50914 12.0303 8.71491 12.0303C8.92068 12.0303 9.09316 12.1021 9.23236 12.2459C9.37156 12.3896 9.44115 12.5678 9.44115 12.7803C9.44115 12.9928 9.37156 13.1709 9.23236 13.3146C9.09316 13.4584 8.92068 13.5303 8.71491 13.5303ZM5.80993 13.5303C5.60416 13.5303 5.43168 13.4584 5.29248 13.3146C5.15329 13.1709 5.08369 12.9928 5.08369 12.7803C5.08369 12.5678 5.15329 12.3896 5.29248 12.2459C5.43168 12.1021 5.60416 12.0303 5.80993 12.0303C6.0157 12.0303 6.18818 12.1021 6.32738 12.2459C6.46658 12.3896 6.53618 12.5678 6.53618 12.7803C6.53618 12.9928 6.46658 13.1709 6.32738 13.3146C6.18818 13.4584 6.0157 13.5303 5.80993 13.5303ZM11.6199 13.5303C11.4141 13.5303 11.2416 13.4584 11.1024 13.3146C10.9632 13.1709 10.8936 12.9928 10.8936 12.7803C10.8936 12.5678 10.9632 12.3896 11.1024 12.2459C11.2416 12.1021 11.4141 12.0303 11.6199 12.0303C11.8257 12.0303 11.9981 12.1021 12.1373 12.2459C12.2765 12.3896 12.3461 12.5678 12.3461 12.7803C12.3461 12.9928 12.2765 13.1709 12.1373 13.3146C11.9981 13.4584 11.8257 13.5303 11.6199 13.5303Z" fill="#3098F9"/>
</g>
</g>
</svg>
