<svg width="46" height="47" viewBox="0 0 46 47" fill="none" xmlns="http://www.w3.org/2000/svg">
<path d="M23 34.6053C23.6375 34.6053 24.1719 34.3855 24.6031 33.9459C25.0344 33.5063 25.25 32.9616 25.25 32.3118C25.25 31.662 25.0344 31.1173 24.6031 30.6777C24.1719 30.2381 23.6375 30.0183 23 30.0183C22.3625 30.0183 21.8281 30.2381 21.3969 30.6777C20.9656 31.1173 20.75 31.662 20.75 32.3118C20.75 32.9616 20.9656 33.5063 21.3969 33.9459C21.8281 34.3855 22.3625 34.6053 23 34.6053ZM20.75 25.4314H25.25V11.6705H20.75V25.4314ZM23 46.0727C19.8875 46.0727 16.9625 45.4707 14.225 44.2666C11.4875 43.0625 9.10625 41.4284 7.08125 39.3643C5.05625 37.3001 3.45313 34.8729 2.27188 32.0825C1.09062 29.2921 0.5 26.3106 0.5 23.1379C0.5 19.9653 1.09062 16.9837 2.27188 14.1933C3.45313 11.4029 5.05625 8.97568 7.08125 6.91155C9.10625 4.84742 11.4875 3.21332 14.225 2.00924C16.9625 0.805163 19.8875 0.203125 23 0.203125C26.1125 0.203125 29.0375 0.805163 31.775 2.00924C34.5125 3.21332 36.8938 4.84742 38.9188 6.91155C40.9438 8.97568 42.5469 11.4029 43.7281 14.1933C44.9094 16.9837 45.5 19.9653 45.5 23.1379C45.5 26.3106 44.9094 29.2921 43.7281 32.0825C42.5469 34.8729 40.9438 37.3001 38.9188 39.3643C36.8938 41.4284 34.5125 43.0625 31.775 44.2666C29.0375 45.4707 26.1125 46.0727 23 46.0727Z" fill="#FF7E06"/>
</svg>
