<svg width="20" height="20" viewBox="0 0 20 20" fill="none" xmlns="http://www.w3.org/2000/svg">
<mask id="mask0_6724_2414" style="mask-type:alpha" maskUnits="userSpaceOnUse" x="0" y="0" width="20" height="20">
<rect width="20" height="20" fill="#D9D9D9"/>
</mask>
<g mask="url(#mask0_6724_2414)">
<path d="M9.28 15.6H10.68V14.6C11.3467 14.48 11.92 14.22 12.4 13.82C12.88 13.42 13.12 12.8267 13.12 12.04C13.12 11.48 12.96 10.9667 12.64 10.5C12.32 10.0333 11.68 9.62667 10.72 9.28C9.92 9.01333 9.36667 8.78 9.06 8.58C8.75333 8.38 8.6 8.10667 8.6 7.76C8.6 7.41333 8.72333 7.14 8.97 6.94C9.21667 6.74 9.57333 6.64 10.04 6.64C10.4667 6.64 10.8 6.74333 11.04 6.95C11.28 7.15667 11.4533 7.41333 11.56 7.72L12.84 7.2C12.6933 6.73333 12.4233 6.32667 12.03 5.98C11.6367 5.63333 11.2 5.44 10.72 5.4V4.4H9.32V5.4C8.65333 5.54667 8.13333 5.84 7.76 6.28C7.38667 6.72 7.2 7.21333 7.2 7.76C7.2 8.38667 7.38333 8.89333 7.75 9.28C8.11667 9.66667 8.69333 10 9.48 10.28C10.32 10.5867 10.9033 10.86 11.23 11.1C11.5567 11.34 11.72 11.6533 11.72 12.04C11.72 12.48 11.5633 12.8033 11.25 13.01C10.9367 13.2167 10.56 13.32 10.12 13.32C9.68 13.32 9.29 13.1833 8.95 12.91C8.61 12.6367 8.36 12.2267 8.2 11.68L6.88 12.2C7.06667 12.84 7.35667 13.3567 7.75 13.75C8.14333 14.1433 8.65333 14.4133 9.28 14.56V15.6ZM10 18C8.89333 18 7.85333 17.79 6.88 17.37C5.90667 16.95 5.06 16.38 4.34 15.66C3.62 14.94 3.05 14.0933 2.63 13.12C2.21 12.1467 2 11.1067 2 10C2 8.89333 2.21 7.85333 2.63 6.88C3.05 5.90667 3.62 5.06 4.34 4.34C5.06 3.62 5.90667 3.05 6.88 2.63C7.85333 2.21 8.89333 2 10 2C11.1067 2 12.1467 2.21 13.12 2.63C14.0933 3.05 14.94 3.62 15.66 4.34C16.38 5.06 16.95 5.90667 17.37 6.88C17.79 7.85333 18 8.89333 18 10C18 11.1067 17.79 12.1467 17.37 13.12C16.95 14.0933 16.38 14.94 15.66 15.66C14.94 16.38 14.0933 16.95 13.12 17.37C12.1467 17.79 11.1067 18 10 18Z" fill="#38AD4B"/>
</g>
</svg>
