<svg width="34" height="34" viewBox="0 0 34 34" fill="none" xmlns="http://www.w3.org/2000/svg">
<rect x="0.5" y="0.5" width="33" height="33" rx="7.5" fill="white" stroke="#B58426"/>
<mask id="mask0_4482_14468" style="mask-type:alpha" maskUnits="userSpaceOnUse" x="7" y="7" width="20" height="20">
<rect x="7" y="7" width="20" height="20" fill="#D9D9D9"/>
</mask>
<g mask="url(#mask0_4482_14468)">
<path d="M21.9609 20.4792L19.5859 18.125L20.7734 16.9583L21.9609 18.125L24.8984 15.1875L26.0859 16.3542L21.9609 20.4792ZM16.1693 24.5L13.5234 22.125C12.5234 21.2222 11.6658 20.4167 10.9505 19.7083C10.2352 19 9.64497 18.3333 9.17969 17.7083C8.71441 17.0833 8.37413 16.4792 8.15885 15.8958C7.94358 15.3125 7.83594 14.7014 7.83594 14.0625C7.83594 12.7569 8.27344 11.6701 9.14844 10.8021C10.0234 9.93403 11.1137 9.5 12.4193 9.5C13.1415 9.5 13.829 9.65278 14.4818 9.95833C15.1345 10.2639 15.697 10.6944 16.1693 11.25C16.6415 10.6944 17.204 10.2639 17.8568 9.95833C18.5095 9.65278 19.197 9.5 19.9193 9.5C21.0443 9.5 21.9887 9.81597 22.7526 10.4479C23.5165 11.0799 24.0373 11.875 24.3151 12.8333H22.5443C22.2943 12.2778 21.9262 11.8611 21.4401 11.5833C20.954 11.3056 20.447 11.1667 19.9193 11.1667C19.2109 11.1667 18.5998 11.3576 18.0859 11.7396C17.572 12.1215 17.0929 12.625 16.6484 13.25H15.6901C15.2595 12.625 14.77 12.1215 14.2214 11.7396C13.6727 11.3576 13.072 11.1667 12.4193 11.1667C11.6276 11.1667 10.9436 11.441 10.3672 11.9896C9.7908 12.5382 9.5026 13.2292 9.5026 14.0625C9.5026 14.5208 9.59983 14.9861 9.79427 15.4583C9.98872 15.9306 10.3359 16.4757 10.8359 17.0938C11.3359 17.7118 12.0165 18.434 12.8776 19.2604C13.7387 20.0868 14.8359 21.0833 16.1693 22.25C16.5304 21.9306 16.954 21.5625 17.4401 21.1458C17.9262 20.7292 18.3151 20.3819 18.6068 20.1042L19.7943 21.2917C19.4887 21.5694 19.0998 21.9132 18.6276 22.3229C18.1554 22.7326 17.7387 23.0972 17.3776 23.4167L16.1693 24.5Z" fill="#B58426"/>
</g>
<mask id="mask1_4482_14468" style="mask-type:alpha" maskUnits="userSpaceOnUse" x="7" y="7" width="20" height="20">
<rect x="7" y="7" width="20" height="20" fill="#D9D9D9"/>
</mask>
<g mask="url(#mask1_4482_14468)">
<path d="M16.1693 24.5L13.5234 22.125C12.5234 21.2222 11.6658 20.4167 10.9505 19.7083C10.2352 19 9.64497 18.3333 9.17969 17.7083C8.71441 17.0833 8.37413 16.4792 8.15885 15.8958C7.94358 15.3125 7.83594 14.7014 7.83594 14.0625C7.83594 12.7569 8.27344 11.6701 9.14844 10.8021C10.0234 9.93403 11.1137 9.5 12.4193 9.5C13.1415 9.5 13.829 9.64931 14.4818 9.94792C15.1345 10.2465 15.697 10.6736 16.1693 11.2292C16.6415 10.6736 17.204 10.2465 17.8568 9.94792C18.5095 9.64931 19.197 9.5 19.9193 9.5C21.0998 9.5 22.0894 9.85764 22.888 10.5729C23.6866 11.2882 24.1832 12.125 24.3776 13.0833C24.0998 12.9722 23.8082 12.9028 23.5026 12.875C23.197 12.8472 22.8845 12.8333 22.5651 12.8333C21.3845 12.8333 20.3012 13.309 19.3151 14.2604C18.329 15.2118 17.8359 16.4028 17.8359 17.8333C17.8359 18.5 17.9818 19.1771 18.2734 19.8646C18.5651 20.5521 18.9748 21.1111 19.5026 21.5417C19.2387 21.7778 18.895 22.0799 18.4714 22.4479C18.0477 22.816 17.6832 23.1389 17.3776 23.4167L16.1693 24.5ZM21.9609 20.4792L19.5859 18.125L20.7734 16.9583L21.9609 18.125L24.8984 15.1875L26.0859 16.3542L21.9609 20.4792Z" fill="#B58426"/>
</g>
</svg>
