<svg width="116" height="30" viewBox="0 0 116 30" fill="none" xmlns="http://www.w3.org/2000/svg">
<path d="M49.0662 27.0121V3.18677H53.9287V22.9639H66.0216V27.0121H49.0662Z" fill="white"/>
<path d="M74.3573 22.9638V16.4277H86.4442V12.3795H69.4888V27.012H87.8093V22.9638H74.3573ZM87.3502 2.98792H69.4888V7.05418H87.3502V2.98792Z" fill="white"/>
<path d="M103.14 18.1807V14.1325H113.62V23.6988C112.599 24.6807 111.125 25.5482 109.192 26.2951C107.259 27.0421 105.302 27.4156 103.321 27.4156C100.802 27.4156 98.6034 26.8915 96.7309 25.8373C94.8584 24.7831 93.451 23.2771 92.5087 21.3132C91.5664 19.3554 91.0952 17.2168 91.0952 14.9156C91.0952 12.4156 91.6207 10.1927 92.6718 8.24696C93.7228 6.30118 95.2631 4.81323 97.2866 3.77106C98.833 2.97588 100.754 2.57227 103.055 2.57227C106.045 2.57227 108.383 3.19877 110.062 4.44576C111.741 5.69877 112.823 7.42768 113.306 9.6325L108.473 10.5361C108.135 9.35539 107.495 8.42768 106.559 7.74094C105.622 7.06021 104.451 6.71684 103.049 6.71684C100.923 6.71684 99.2316 7.39154 97.9813 8.73491C96.7249 10.0783 96.1027 12.0723 96.1027 14.7168C96.1027 17.5662 96.7369 19.7048 98.0115 21.1325C99.2799 22.5602 100.947 23.271 103.007 23.271C104.028 23.271 105.049 23.0723 106.069 22.6747C107.096 22.2771 107.972 21.7951 108.709 21.2229V18.1747H103.14V18.1807Z" fill="white"/>
<path d="M16.7016 16.2771C16.7016 16.8915 16.6956 17.4457 16.6835 17.9457C16.6473 19 16.5869 19.8012 16.4902 20.3554C16.3453 21.1747 15.9224 21.8674 15.2278 22.4277C14.5271 22.9879 13.4821 23.271 12.1049 23.271C10.7458 23.271 9.67667 22.9698 8.89142 22.3795C8.11221 21.7831 7.61086 20.9939 7.40548 20.012C7.30884 19.5301 7.25447 18.5903 7.23635 17.1927C7.23031 16.8253 7.23031 16.4337 7.23031 16V2.98792H2.35571V15.8012C2.35571 18.4879 2.5188 20.518 2.8329 21.8976C3.05036 22.8253 3.50339 23.7108 4.19803 24.5602C4.88664 25.4096 5.82894 26.0963 7.0189 26.6265C8.20885 27.1566 9.94849 27.4156 12.2499 27.4156C14.056 27.4156 15.5419 27.1988 16.7016 26.759C16.7621 26.7409 16.8225 26.7108 16.8829 26.6867C18.0668 26.1988 19.0091 25.5482 19.7158 24.7289C20.4225 23.9096 20.9058 22.9036 21.1715 21.7108C21.4313 20.518 21.5642 18.4819 21.5642 15.6024V9.80117L16.7016 13.8674V16.2771ZM16.7016 2.98792V7.05418L21.5642 2.98792H16.7016Z" fill="white"/>
<path d="M43.5452 5.70474C42.615 4.4939 41.4613 3.71076 40.078 3.35534C39.178 3.11438 37.2511 2.9939 34.2913 2.9939H26.4932L31.3557 7.06016H33.7054C35.4571 7.06016 36.6289 7.11438 37.2028 7.22281C37.9941 7.36739 38.6464 7.71679 39.1599 8.28908C39.6733 8.85535 39.933 9.57824 39.933 10.4517C39.933 11.1626 39.7458 11.7831 39.3834 12.3192C39.0149 12.8553 38.5136 13.2469 37.8672 13.4999C37.2209 13.7529 35.9403 13.8794 34.0195 13.8794H31.3557L26.4932 9.81318V27.018H31.3557V17.9457H34.5269C36.7316 17.9457 38.4109 17.8313 39.5767 17.6023C40.4284 17.4156 41.268 17.0361 42.0955 16.4638C42.923 15.8915 43.6056 15.1023 44.1432 14.0963C44.6808 13.0903 44.9466 11.8493 44.9466 10.3794C44.9405 8.4698 44.4815 6.90956 43.5452 5.70474Z" fill="white"/>
</svg>
