<svg width="158" height="19" viewBox="0 0 158 19" fill="none" xmlns="http://www.w3.org/2000/svg">
<path d="M21.7538 14.6044H18.5511V8.21636H17V5.57779H18.5511V2.68359H21.7538V5.57779H23.5657V8.21636H21.7538V14.6044Z" fill="#77838F"/>
<path d="M27.7891 7.05446H27.8246C28.4399 5.94531 29.4962 5.45312 30.7457 5.45312H31.3618V8.53276C30.9225 8.2858 30.4996 8.23294 30.0074 8.23294C28.2302 8.23294 27.79 9.41228 27.79 10.9608V14.6036H24.5864V5.57617H27.7882V7.05446H27.7891Z" fill="#77838F"/>
<path d="M42.3689 14.6038H39.1662V13.6003H39.1316C38.5683 14.498 37.46 14.9027 36.4046 14.9027C33.7296 14.9027 31.8467 12.6679 31.8467 10.0814C31.8467 7.49478 33.695 5.27734 36.3691 5.27734C37.4072 5.27734 38.4981 5.66468 39.1662 6.45668V5.57716H42.3689V14.6038ZM35.1542 10.0987C35.1542 11.2434 35.9116 12.1229 37.2131 12.1229C38.5155 12.1229 39.2719 11.2434 39.2719 10.0987C39.2719 8.9904 38.5155 8.05802 37.2131 8.05802C35.9116 8.05802 35.1542 8.9904 35.1542 10.0987Z" fill="#77838F"/>
<path d="M50.4873 13.6019H50.4518C49.8894 14.4996 48.7802 14.9042 47.7239 14.9042C45.0498 14.9042 43.166 12.6695 43.166 10.0829C43.166 7.49631 45.0143 5.27888 47.6884 5.27888C48.7274 5.27888 49.8175 5.66621 50.4864 6.45822V0H53.6882V14.6044H50.4864V13.6019H50.4873ZM46.4744 10.1002C46.4744 11.2449 47.2309 12.1244 48.5333 12.1244C49.8357 12.1244 50.5921 11.2449 50.5921 10.1002C50.5921 8.99194 49.8357 8.05956 48.5333 8.05956C47.2309 8.05956 46.4744 8.99194 46.4744 10.1002Z" fill="#77838F"/>
<path d="M58.5549 2.11098C58.5549 3.09709 57.7455 3.90642 56.7594 3.90642C55.775 3.90642 54.9648 3.09622 54.9648 2.11098C54.9648 1.12661 55.775 0.316407 56.7594 0.316407C57.7455 0.31554 58.5549 1.12574 58.5549 2.11098ZM58.3616 14.6045H55.1589V5.57795H58.3616V14.6045Z" fill="#77838F"/>
<path d="M69.3943 10.6273H62.6553C62.6553 11.9288 63.3407 12.6333 64.6605 12.6333C65.3476 12.6333 65.8398 12.4054 66.1916 11.8049H69.2712C69.0251 12.862 68.3917 13.6358 67.565 14.1462C66.7384 14.6566 65.7167 14.9027 64.6787 14.9027C61.6874 14.9027 59.4526 13.213 59.4526 10.0987C59.4526 7.09011 61.5115 5.27734 64.4499 5.27734C67.5815 5.27734 69.3943 7.21316 69.3943 10.2928V10.6273ZM66.4195 8.77984C66.2618 7.91765 65.4698 7.3544 64.6076 7.3544C63.6743 7.3544 62.9014 7.84746 62.7082 8.77984H66.4195Z" fill="#77838F"/>
<path d="M73.4291 7.05446H73.4638C74.0799 5.94531 75.1353 5.45312 76.3849 5.45312H77.0001V8.53276C76.5608 8.2858 76.1379 8.23294 75.6457 8.23294C73.8676 8.23294 73.4283 9.41228 73.4283 10.9608V14.6036H70.2256V5.57617H73.4283V7.05446H73.4291Z" fill="#77838F"/>
<path d="M10.8792 5.17098L10.882 5.16406L10.8813 5.16475L1.44043 14.5904L2.76946 15.9097L8.68123 9.9938L10.8792 5.17098Z" fill="#FFD777"/>
<path d="M10.8822 5.16406L6.0345 7.35789H6.03519L0.117188 13.2752L1.44068 14.5904L10.8815 5.16475L10.8822 5.16406Z" fill="#F6B350"/>
<path d="M10.8822 5.16406L0.000976562 7.35789H6.03452L10.8822 5.16406Z" fill="#E39196"/>
<path d="M10.8819 5.16406L10.8791 5.17098L8.68115 9.9938V16.0204L10.8819 5.16475V5.16406Z" fill="#9ABEE5"/>
<path d="M10.882 5.16298L10.8626 5.15952L3.37341 4H3.37272L0.00138292 7.35542L0 7.35681H0.000690404L10.882 5.16298Z" fill="#C44361"/>
<path d="M10.8828 5.16229L12.0534 4H3.37354L10.8627 5.15952L10.8828 5.16229Z" fill="#9E2A51"/>
<path d="M10.8819 5.16406L8.68115 16.0197H8.68184L12.0532 12.6657L10.8819 5.16406Z" fill="#4897D2"/>
<path d="M12.0536 4L10.883 5.16229L10.8823 5.16298V5.16367L12.0536 12.6653V4Z" fill="#0F73B0"/>
<path d="M84 3H86.5716V8.18465C87.1223 7.54885 87.9843 7.23821 88.818 7.23821C90.9654 7.23821 92.4487 9.01832 92.4487 11.0952C92.4487 13.186 90.9509 14.9661 88.7896 14.9661C87.9421 14.9661 87.0662 14.6409 86.5999 13.9207H86.5716V14.726H84V3ZM86.4865 11.1091C86.4865 12.0271 87.0939 12.7335 88.1393 12.7335C89.1846 12.7335 89.7921 12.0271 89.7921 11.1091C89.7921 10.2187 89.1846 9.47009 88.1393 9.47009C87.0939 9.47009 86.4865 10.2193 86.4865 11.1091Z" fill="#4497D2"/>
<path d="M95.9171 8.66435H95.9454C96.4401 7.77395 97.2876 7.37891 98.2908 7.37891H98.7854V9.85154C98.4319 9.65368 98.0929 9.61147 97.6979 9.61147C96.2713 9.61147 95.9178 10.5579 95.9178 11.8011V14.7256H93.3462V7.47784H95.9178V8.66435H95.9171Z" fill="#4497D2"/>
<path d="M107.705 11.1091C107.705 13.5672 105.67 14.9661 103.34 14.9661C101.023 14.9661 98.9741 13.5818 98.9741 11.1091C98.9741 8.63649 101.009 7.23828 103.34 7.23828C105.67 7.23828 107.705 8.63718 107.705 11.1091ZM101.687 11.1091C101.687 12.0272 102.294 12.7336 103.34 12.7336C104.385 12.7336 104.992 12.0272 104.992 11.1091C104.992 10.2187 104.385 9.47016 103.34 9.47016C102.294 9.47016 101.687 10.2194 101.687 11.1091Z" fill="#4497D2"/>
<path d="M111.097 10.0921L113.767 7.47828H117.285L113.654 10.8268L117.511 14.726H113.909L111.097 11.7732V14.726H108.526V3H111.097V10.0921H111.097Z" fill="#4497D2"/>
<path d="M124.862 11.5332H119.451C119.451 12.5786 120.001 13.1438 121.061 13.1438C121.612 13.1438 122.008 12.9605 122.291 12.4797H124.763C124.566 13.3272 124.057 13.9491 123.393 14.3587C122.729 14.7683 121.91 14.9661 121.076 14.9661C118.674 14.9661 116.88 13.6101 116.88 11.1091C116.88 8.69322 118.533 7.23828 120.893 7.23828C123.407 7.23828 124.862 8.79215 124.862 11.2648V11.5332H124.862ZM122.474 10.0499C122.347 9.35739 121.711 8.90562 121.019 8.90562C120.271 8.90562 119.649 9.30135 119.494 10.0499H122.474Z" fill="#4497D2"/>
<path d="M128.285 8.66435H128.313C128.808 7.77395 129.655 7.37891 130.658 7.37891H131.153V9.85154C130.8 9.65368 130.461 9.61147 130.066 9.61147C128.639 9.61147 128.285 10.5579 128.285 11.8011V14.7256H125.714V7.47784H128.285V8.66435H128.285Z" fill="#4497D2"/>
<path d="M139.804 14.7261H137.232V13.9208H137.204C136.751 14.641 135.862 14.9661 135.014 14.9661C132.867 14.9661 131.355 13.1722 131.355 11.0953C131.355 9.01839 132.838 7.23828 134.986 7.23828C135.819 7.23828 136.695 7.54892 137.232 8.18472V7.47835H139.804V14.7261ZM134.012 11.1091C134.012 12.0272 134.619 12.7336 135.664 12.7336C136.71 12.7336 137.317 12.0272 137.317 11.1091C137.317 10.2187 136.71 9.47016 135.664 9.47016C134.619 9.47016 134.012 10.2194 134.012 11.1091Z" fill="#4497D2"/>
<path d="M149.125 14.0197C149.125 17.0998 147.599 18.343 144.929 18.343C143.261 18.343 141.029 17.481 140.803 15.5743H143.685C143.756 15.8289 143.94 16.0122 144.165 16.125C144.392 16.2377 144.66 16.2945 144.9 16.2945C146.285 16.2945 146.553 15.3902 146.553 14.2176V13.8786C145.889 14.5427 145.211 14.8672 144.25 14.8672C142.131 14.8672 140.676 13.2566 140.676 11.1659C140.676 9.04675 142.174 7.23828 144.392 7.23828C145.239 7.23828 146.016 7.52055 146.525 8.24145H146.554V7.47835H149.125V14.0197H149.125ZM143.332 11.0524C143.332 11.9705 143.939 12.6768 144.985 12.6768C146.03 12.6768 146.637 11.9705 146.637 11.0524C146.637 10.162 146.03 9.41343 144.985 9.41343C143.939 9.41343 143.332 10.1627 143.332 11.0524Z" fill="#4497D2"/>
<path d="M157.914 11.5332H152.503C152.503 12.5786 153.054 13.1438 154.114 13.1438C154.665 13.1438 155.061 12.9605 155.344 12.4797H157.816C157.618 13.3272 157.11 13.9491 156.446 14.3587C155.781 14.7683 154.962 14.9661 154.129 14.9661C151.727 14.9661 149.933 13.6101 149.933 11.1091C149.933 8.69322 151.585 7.23828 153.945 7.23828C156.46 7.23828 157.915 8.79215 157.915 11.2648V11.5332H157.914ZM155.527 10.0499C155.4 9.35739 154.764 8.90562 154.072 8.90562C153.323 8.90562 152.701 9.30135 152.546 10.0499H155.527Z" fill="#4497D2"/>
</svg>
