<svg width="550" height="454" viewBox="0 0 550 454" fill="none" xmlns="http://www.w3.org/2000/svg">
<path d="M250.981 453.764L171.293 381.918C141.175 354.608 115.346 330.241 93.803 308.811C72.26 287.385 54.484 267.216 40.47 248.309C26.456 229.403 16.208 211.128 9.72501 193.48C3.24201 175.834 0 157.348 0 138.02C0 98.5242 13.176 65.6484 39.529 39.3896C65.881 13.1299 98.718 0 138.04 0C159.791 0 180.497 4.5169 200.158 13.5497C219.816 22.5825 236.757 35.5025 250.982 52.3095C265.204 35.5025 282.145 22.5815 301.806 13.5497C321.464 4.5169 342.17 0 363.924 0C399.478 0 429.282 10.8187 453.334 32.456C477.386 54.0944 492.342 79.409 498.197 108.398C489.83 105.037 481.048 102.938 471.844 102.096C462.64 101.254 453.228 100.834 443.609 100.834C408.052 100.834 375.426 115.225 345.727 144.006C316.028 172.787 301.177 208.815 301.177 252.089C301.177 272.257 305.571 292.74 314.353 313.538C323.138 334.336 335.478 351.246 351.374 364.272C343.426 371.414 333.075 380.552 320.317 391.685C307.556 402.82 296.578 412.589 287.374 420.993L250.983 453.763L250.981 453.764ZM425.411 332.131L353.882 260.914L389.647 225.62L425.412 260.914L513.883 172.051L549.648 207.345L425.413 332.13L425.411 332.131Z" fill="#B58426"/>
</svg>
