<svg width="104" height="104" viewBox="0 0 104 104" fill="none" xmlns="http://www.w3.org/2000/svg">
<path opacity="0.4" d="M88.8335 44.158H76.3102C66.0402 44.158 57.6768 35.7946 57.6768 25.5246V13.0013C57.6768 10.618 55.7268 8.66797 53.3435 8.66797H34.9702C21.6235 8.66797 10.8335 17.3346 10.8335 32.8046V71.198C10.8335 86.668 21.6235 95.3346 34.9702 95.3346H69.0302C82.3768 95.3346 93.1668 86.668 93.1668 71.198V48.4913C93.1668 46.108 91.2168 44.158 88.8335 44.158Z" fill="#C8A24E"/>
<path d="M68.4667 9.57485C66.69 7.79818 63.6133 9.01151 63.6133 11.4815V26.6048C63.6133 32.9315 68.9867 38.1748 75.53 38.1748C79.6467 38.2182 85.3667 38.2182 90.2633 38.2182C92.7333 38.2182 94.0333 35.3148 92.3 33.5815C86.06 27.2982 74.88 15.9882 68.4667 9.57485ZM58.5 59.5815H32.5C30.7233 59.5815 29.25 58.1082 29.25 56.3315C29.25 54.5548 30.7233 53.0815 32.5 53.0815H58.5C60.2767 53.0815 61.75 54.5548 61.75 56.3315C61.75 58.1082 60.2767 59.5815 58.5 59.5815ZM49.8333 76.9148H32.5C30.7233 76.9148 29.25 75.4415 29.25 73.6648C29.25 71.8882 30.7233 70.4148 32.5 70.4148H49.8333C51.61 70.4148 53.0833 71.8882 53.0833 73.6648C53.0833 75.4415 51.61 76.9148 49.8333 76.9148Z" fill="#C8A24E"/>
</svg>
