<svg width="29" height="29" viewBox="0 0 29 29" fill="none" xmlns="http://www.w3.org/2000/svg">
<path d="M14.6641 4.50391V4.51557M14.6641 9.75391V9.76557M14.6641 14.4206V14.4322" stroke="#B58426" stroke-width="3" stroke-miterlimit="10" stroke-linecap="round" stroke-linejoin="round"/>
<path d="M14.6641 19.0859V19.0959" stroke="#B58426" stroke-width="2" stroke-miterlimit="10" stroke-linecap="round" stroke-linejoin="round"/>
<path d="M14.6641 23.168V23.178" stroke="#B58426" stroke-width="1.5" stroke-miterlimit="10" stroke-linecap="round" stroke-linejoin="round"/>
<path d="M14.6641 26.668V26.678" stroke="#B58426" stroke-miterlimit="10" stroke-linecap="round" stroke-linejoin="round"/>
<path d="M4.74756 9.75391V9.76557M24.5809 9.75391V9.76557" stroke="#B58426" stroke-width="3" stroke-miterlimit="10" stroke-linecap="round" stroke-linejoin="round"/>
<path d="M24.5809 14.418V14.4296M4.74756 14.418V14.4296" stroke="#B58426" stroke-width="2" stroke-miterlimit="10" stroke-linecap="round" stroke-linejoin="round"/>
<path d="M24.5806 17.918V17.928" stroke="#B58426" stroke-width="1.5" stroke-miterlimit="10" stroke-linecap="round" stroke-linejoin="round"/>
<path d="M24.5806 21.418V21.428" stroke="#B58426" stroke-miterlimit="10" stroke-linecap="round" stroke-linejoin="round"/>
<path d="M4.74756 17.918V17.928" stroke="#B58426" stroke-width="1.5" stroke-miterlimit="10" stroke-linecap="round" stroke-linejoin="round"/>
<path d="M4.74756 21.418V21.428" stroke="#B58426" stroke-miterlimit="10" stroke-linecap="round" stroke-linejoin="round"/>
<path d="M9.7639 12.0875V12.0992M9.70557 7.1875V7.19917M19.5639 12.0875V12.0992M19.6222 7.1875V7.19917" stroke="#B58426" stroke-width="3" stroke-miterlimit="10" stroke-linecap="round" stroke-linejoin="round"/>
<path d="M9.76416 16.7539V16.7639" stroke="#B58426" stroke-width="2" stroke-miterlimit="10" stroke-linecap="round" stroke-linejoin="round"/>
<path d="M9.76416 20.2539V20.2639" stroke="#B58426" stroke-width="1.5" stroke-miterlimit="10" stroke-linecap="round" stroke-linejoin="round"/>
<path d="M9.76416 23.7539V23.7639" stroke="#B58426" stroke-miterlimit="10" stroke-linecap="round" stroke-linejoin="round"/>
<path d="M19.564 16.7539V16.7639" stroke="#B58426" stroke-width="2" stroke-miterlimit="10" stroke-linecap="round" stroke-linejoin="round"/>
<path d="M19.564 20.2539V20.2639" stroke="#B58426" stroke-width="1.5" stroke-miterlimit="10" stroke-linecap="round" stroke-linejoin="round"/>
<path d="M19.564 23.7539V23.7639" stroke="#B58426" stroke-miterlimit="10" stroke-linecap="round" stroke-linejoin="round"/>
</svg>
