<?xml version="1.0" encoding="UTF-8"?>
<svg xmlns="http://www.w3.org/2000/svg" width="160" height="24" viewBox="0 0 160 24" fill="none">
  <g clip-path="url(#clip0_1816_5542)">
    <path d="M12.8087 7.82764L7.16382 23.6165C12.0631 23.6165 16.0571 19.6493 16.0571 14.7236C16.0571 11.9546 14.8057 9.47841 12.8087 7.82764Z" fill="#0089FF"></path>
    <path d="M15.3883 0.558594L13.4978 5.88366H17.8113C20.7403 5.88366 23.1367 3.51401 23.1367 0.558594H15.3883Z" fill="#0089FF"></path>
    <path d="M5.35196 0.558594C2.3964 0.558594 0 2.95487 0 5.91028H6.09751C5.61823 7.00192 5.35196 8.20006 5.35196 9.45145C5.35196 12.0075 6.41703 14.2973 8.14777 15.9214L13.6329 0.558594H5.35196Z" fill="#0089FF"></path>
    <path d="M65.4987 16.8533C64.5667 16.8533 63.7147 16.6137 62.9958 16.161C62.2502 15.6818 61.6644 15.0161 61.2384 14.1641C60.8124 13.3121 60.5994 12.3004 60.5994 11.1821C60.5994 10.1171 60.8124 9.15857 61.2384 8.27994C61.6644 7.4013 62.2502 6.70904 63.0224 6.17654C63.7946 5.64403 64.6732 5.4044 65.6318 5.4044C66.2176 5.4044 66.7501 5.5109 67.256 5.75053C67.7619 5.99016 68.188 6.30966 68.5075 6.73567V0.558594H72.2618V16.5338H68.7205L68.6672 15.309C68.3477 15.8149 67.9217 16.1877 67.3625 16.4805C66.83 16.7202 66.191 16.8533 65.4987 16.8533ZM66.5371 13.4985C67.1761 13.4985 67.7087 13.2855 68.1081 12.8329C68.5075 12.3802 68.7205 11.8211 68.7205 11.1288C68.7205 10.4366 68.5075 9.85083 68.1081 9.42483C67.7087 8.97219 67.1761 8.75919 66.5371 8.75919C65.8981 8.75919 65.3655 8.97219 64.9661 9.42483C64.5667 9.87746 64.3537 10.4366 64.3537 11.1288C64.3537 11.8211 64.5667 12.4069 64.9661 12.8329C65.3655 13.2855 65.8981 13.4985 66.5371 13.4985Z" fill="#0089FF"></path>
    <path d="M129.774 4.04705C129.188 4.04705 128.682 3.86067 128.256 3.46129C127.857 3.08854 127.644 2.60928 127.644 2.02352C127.644 1.46439 127.857 0.958512 128.256 0.585757C128.656 0.186377 129.162 0 129.774 0C130.386 0 130.866 0.186377 131.292 0.585757C131.691 0.985137 131.904 1.46439 131.904 2.02352C131.904 2.58266 131.691 3.06191 131.292 3.46129C130.866 3.83405 130.36 4.04705 129.774 4.04705ZM127.883 5.72445H131.638V16.5077H127.883V5.72445Z" fill="#0089FF"></path>
    <path d="M138.751 16.8522C137.66 16.8522 136.675 16.6126 135.769 16.1333C134.864 15.6541 134.145 14.9884 133.613 14.1098C133.08 13.2312 132.814 12.246 132.814 11.1278C132.814 10.0894 133.053 9.13086 133.559 8.25223C134.065 7.37359 134.757 6.68134 135.663 6.17545C136.568 5.66957 137.607 5.40332 138.751 5.40332C139.843 5.40332 140.828 5.64295 141.734 6.1222C142.639 6.60146 143.358 7.26709 143.89 8.14573C144.423 9.02436 144.689 10.0095 144.689 11.1278C144.689 12.1661 144.45 13.1247 143.97 14.0033C143.491 14.8553 142.772 15.5742 141.867 16.0801C140.935 16.586 139.923 16.8522 138.751 16.8522ZM138.751 13.4974C139.39 13.4974 139.923 13.2844 140.322 12.8318C140.722 12.3792 140.935 11.82 140.935 11.1278C140.935 10.4355 140.722 9.84975 140.322 9.42374C139.923 8.97111 139.39 8.75811 138.751 8.75811C138.112 8.75811 137.58 8.97111 137.18 9.42374C136.781 9.87637 136.568 10.4355 136.568 11.1278C136.568 11.82 136.781 12.4058 137.18 12.8318C137.58 13.2844 138.112 13.4974 138.751 13.4974Z" fill="#0089FF"></path>
    <path d="M145.759 5.72308H149.433L149.486 7.05435C149.753 6.52184 150.152 6.12246 150.711 5.82958C151.244 5.5367 151.883 5.37695 152.602 5.37695C153.853 5.37695 154.785 5.77633 155.424 6.54847C156.063 7.3206 156.383 8.46549 156.383 9.95651V16.5063H152.575V10.6488C152.575 9.37075 152.096 8.73174 151.137 8.73174C150.631 8.73174 150.232 8.91812 149.939 9.26425C149.646 9.61038 149.513 10.1429 149.513 10.8085V16.5063H145.759V5.72308Z" fill="#0089FF"></path>
    <path d="M96.3346 8.679C95.5092 7.88024 94.1778 7.2146 92.2873 6.65547C91.3288 6.38922 90.6897 6.12297 90.3702 5.90996C90.0507 5.69696 89.8909 5.37746 89.8909 5.0047C89.8909 4.07282 90.6098 3.62019 92.0743 3.62019C92.7666 3.62019 93.4855 3.72669 94.2843 3.93969C94.8435 4.09944 95.3494 4.28582 95.7754 4.49882L96.8405 1.49016C96.2281 1.11741 95.4825 0.824527 94.5772 0.584899C93.6719 0.371896 92.7932 0.23877 91.8879 0.23877C90.0241 0.23877 88.533 0.664775 87.4679 1.54341C86.3762 2.39542 85.8437 3.59356 85.8437 5.08458C85.8437 6.38922 86.2165 7.45423 86.9886 8.25299C87.7608 9.05175 88.9856 9.69076 90.6897 10.1966C91.382 10.383 91.9146 10.5694 92.314 10.7291C92.6867 10.8889 92.9796 11.0753 93.1394 11.2617C93.3258 11.448 93.4056 11.6877 93.4056 11.9805C93.4056 12.4598 93.1926 12.8325 92.7666 13.0722C92.3406 13.3384 91.7548 13.4716 90.956 13.4716C90.1039 13.4716 89.1986 13.3384 88.2667 13.0722C87.6543 12.9124 87.1218 12.6994 86.6158 12.4598L85.5508 15.4685C85.9502 15.7347 86.4295 15.9477 87.0419 16.1607C87.6543 16.3737 88.32 16.5335 89.0389 16.64C89.7578 16.7465 90.4501 16.7997 91.1424 16.7997C93.1394 16.7997 94.7104 16.3737 95.8287 15.4951C96.947 14.6164 97.5062 13.3917 97.5062 11.8208C97.5594 10.5428 97.16 9.47776 96.3346 8.679Z" fill="#0089FF"></path>
    <path d="M84.0353 13.5243L84.0087 13.2048C83.5294 13.4178 82.9969 13.6042 82.3845 13.7373C81.7721 13.8704 81.1597 13.9237 80.5739 13.9237C79.6419 13.9237 78.8964 13.7639 78.3638 13.4711C77.8313 13.1782 77.4585 12.6989 77.2722 12.0865H84.3815C84.4614 11.7138 84.5146 11.2878 84.5146 10.7819C84.5146 9.13112 84.0353 7.79986 83.0768 6.84135C82.1182 5.88283 80.8401 5.37695 79.2159 5.37695C78.0976 5.37695 77.0858 5.61658 76.2337 6.12246C75.3817 6.62834 74.716 7.3206 74.2633 8.17261C73.8107 9.02462 73.571 10.0098 73.571 11.1014C73.571 12.2995 73.8373 13.3379 74.3698 14.1899C74.9024 15.0419 75.6746 15.7076 76.6331 16.1602C77.6183 16.6128 78.7633 16.8525 80.068 16.8525C80.8668 16.8525 81.6389 16.7726 82.3845 16.6395C82.9969 16.533 83.5561 16.3732 84.062 16.1602V13.5243H84.0353ZM79.1094 8.03949C79.6153 8.03949 80.0413 8.19924 80.3875 8.51874C80.707 8.83824 80.8934 9.29088 80.9733 9.85001H77.1923C77.4053 8.62524 78.0443 8.03949 79.1094 8.03949Z" fill="#0089FF"></path>
    <path d="M57.9399 6.70796C57.008 5.82933 55.6767 5.40332 53.8927 5.40332C53.1471 5.40332 52.4016 5.50982 51.656 5.6962C51.0436 5.85595 50.5377 6.04233 50.1117 6.25533V9.29062C51.0969 8.65161 52.1886 8.30548 53.3335 8.30548C54.1323 8.30548 54.7181 8.46523 55.1441 8.81136C55.5435 9.15749 55.7832 9.66337 55.8098 10.3556C55.437 10.1959 55.0376 10.0894 54.585 9.98288C54.1323 9.903 53.7063 9.84975 53.3069 9.84975C52.0554 9.84975 51.0436 10.1693 50.2714 10.8349C49.4993 11.5005 49.0999 12.3525 49.0999 13.4442C49.0999 14.4826 49.4194 15.3079 50.085 15.9203C50.7241 16.5327 51.6028 16.8256 52.7211 16.8256C54.1057 16.8256 55.1707 16.373 55.8897 15.4411L55.9163 16.5061H59.3245V10.4888C59.3245 8.83799 58.8719 7.55997 57.9399 6.70796ZM55.1974 13.8435C54.8512 14.1897 54.4252 14.3761 53.8927 14.3761C53.4933 14.3761 53.1737 14.2696 52.9075 14.0565C52.6678 13.8435 52.5347 13.5773 52.5347 13.2312C52.5347 12.885 52.6678 12.5922 52.9607 12.4058C53.2536 12.1928 53.6264 12.0863 54.1323 12.0863C54.7181 12.0863 55.2773 12.1928 55.7832 12.4058C55.7299 12.9915 55.5435 13.4708 55.1974 13.8435Z" fill="#0089FF"></path>
    <path d="M116.172 6.70796C115.24 5.82933 113.909 5.40332 112.125 5.40332C111.379 5.40332 110.634 5.50982 109.888 5.6962C109.276 5.85595 108.77 6.04233 108.344 6.25533V9.29062C109.329 8.65161 110.421 8.30548 111.566 8.30548C112.364 8.30548 112.95 8.46523 113.376 8.81136C113.776 9.15749 114.015 9.66337 114.042 10.3556C113.669 10.1959 113.27 10.0894 112.817 9.98288C112.364 9.903 111.938 9.84975 111.539 9.84975C110.288 9.84975 109.276 10.1693 108.504 10.8349C107.731 11.5005 107.332 12.3525 107.332 13.4442C107.332 14.4826 107.652 15.3079 108.317 15.9203C108.956 16.5327 109.835 16.8256 110.953 16.8256C112.338 16.8256 113.403 16.373 114.122 15.4411L114.175 16.4795H117.583V10.4888C117.557 8.83799 117.104 7.55997 116.172 6.70796ZM113.43 13.8435C113.083 14.1897 112.657 14.3761 112.125 14.3761C111.725 14.3761 111.406 14.2696 111.14 14.0565C110.9 13.8435 110.767 13.5773 110.767 13.2312C110.767 12.885 110.9 12.5922 111.193 12.4058C111.486 12.1928 111.859 12.0863 112.364 12.0863C112.95 12.0863 113.509 12.1928 114.015 12.4058C113.962 12.9915 113.776 13.4708 113.43 13.8435Z" fill="#0089FF"></path>
    <path d="M106.082 13.0998C105.603 13.3661 105.017 13.4992 104.325 13.4992C103.819 13.4992 103.446 13.3661 103.233 13.0998C103.02 12.8336 102.913 12.3809 102.913 11.7419V8.75989H102.887V8.70663H103.419C105.07 8.70663 106.402 7.37537 106.402 5.7246H102.913V2.95557H99.1591V5.7246H98.0674V8.70663H99.2656V8.75989H99.1591V12.6206C99.1591 14.0583 99.5052 15.1233 100.171 15.8156C100.837 16.5079 101.875 16.854 103.233 16.854C103.872 16.854 104.484 16.8007 105.044 16.6942C105.603 16.5877 106.082 16.428 106.428 16.2416L106.082 13.0998Z" fill="#0089FF"></path>
    <path d="M126.238 13.0998C125.759 13.3661 125.173 13.4992 124.481 13.4992C123.975 13.4992 123.602 13.3661 123.389 13.0998C123.176 12.8336 123.069 12.3809 123.069 11.7419V8.75989H123.043V8.70663H123.575C125.226 8.70663 126.558 7.37537 126.558 5.7246H123.069V2.95557H119.315V5.7246H118.223V8.70663H119.422V8.75989H119.315V12.6206C119.315 14.0583 119.661 15.1233 120.327 15.8156C120.993 16.5079 122.031 16.854 123.389 16.854C124.028 16.854 124.64 16.8007 125.2 16.6942C125.759 16.5877 126.238 16.428 126.584 16.2416L126.238 13.0998Z" fill="#0089FF"></path>
    <path d="M38.8495 0.637953H36.2401H34.9886H34.5093H32.326C30.4355 0.637953 28.8911 2.18222 28.8911 4.07262H33.2845H33.7904V16.5066H38.0241V4.04599H39.8347C41.7252 4.04599 43.2695 2.50173 43.2695 0.611328H38.8495V0.637953Z" fill="#0089FF"></path>
    <path d="M48.7012 5.64361C48.435 5.56374 48.1154 5.53711 47.7959 5.53711C47.1835 5.53711 46.651 5.69686 46.1983 6.01637C45.7457 6.33587 45.3729 6.7885 45.1066 7.37426L45.0534 5.77674H41.4055V16.56H45.1599V11.9006C45.1599 10.942 45.3463 10.2498 45.719 9.74391C46.0918 9.26465 46.6243 9.02503 47.3699 9.02503C47.8492 9.02503 48.3018 9.1049 48.7279 9.29128V5.64361H48.7012Z" fill="#0089FF"></path>
    <path d="M158.082 3.80605C157.763 3.80605 157.47 3.72617 157.204 3.59304C156.937 3.43329 156.724 3.22029 156.565 2.95404C156.405 2.68778 156.325 2.36828 156.325 2.04878C156.325 1.72927 156.405 1.43639 156.538 1.17014C156.698 0.903886 156.911 0.690884 157.177 0.531132C157.443 0.37138 157.763 0.291504 158.082 0.291504C158.402 0.291504 158.695 0.37138 158.961 0.531132C159.227 0.690884 159.44 0.903886 159.6 1.17014C159.76 1.43639 159.84 1.7559 159.84 2.0754C159.84 2.3949 159.76 2.68778 159.6 2.95404C159.44 3.22029 159.227 3.43329 158.961 3.59304C158.721 3.72617 158.428 3.80605 158.082 3.80605ZM158.082 3.51317C158.349 3.51317 158.588 3.45992 158.801 3.32679C159.014 3.19366 159.201 3.03391 159.334 2.79428C159.467 2.58128 159.547 2.31503 159.547 2.04878C159.547 1.78252 159.494 1.54289 159.36 1.32989C159.227 1.11689 159.067 0.930512 158.854 0.797385C158.641 0.664258 158.375 0.584382 158.109 0.584382C157.843 0.584382 157.603 0.637633 157.39 0.77076C157.177 0.903886 156.991 1.06364 156.857 1.30327C156.724 1.51627 156.644 1.78252 156.644 2.04878C156.644 2.31503 156.698 2.55466 156.831 2.76766C156.964 2.98066 157.124 3.16704 157.337 3.30016C157.576 3.43329 157.816 3.51317 158.082 3.51317ZM157.497 1.17014H158.056C158.269 1.17014 158.428 1.22339 158.535 1.30327C158.641 1.40977 158.721 1.51627 158.721 1.70265C158.721 1.94227 158.615 2.10203 158.428 2.1819L158.854 2.84753H158.508L158.136 2.23515H157.816V2.84753H157.523V1.17014H157.497ZM157.789 1.9689H158.029C158.162 1.9689 158.269 1.94227 158.322 1.91565C158.375 1.8624 158.402 1.80915 158.402 1.70265C158.402 1.51627 158.269 1.43639 158.029 1.43639H157.789V1.9689Z" fill="#0089FF"></path>
  </g>
  <defs>
    <clipPath id="clip0_1816_5542">
      <rect width="159.867" height="24" fill="white"></rect>
    </clipPath>
  </defs>
</svg>
