<svg width="550" height="452" viewBox="0 0 550 452" fill="none" xmlns="http://www.w3.org/2000/svg">
<path d="M425.411 330.667L353.882 259.764L389.647 224.626L425.412 259.764L513.883 171.293L549.648 206.431L425.413 330.666L425.411 330.667ZM250.981 451.764L171.293 380.235C141.175 353.045 115.346 328.785 93.803 307.45C72.26 286.118 54.484 266.038 40.47 247.215C26.456 228.392 16.208 210.197 9.72501 192.627C3.24201 175.059 0 156.654 0 137.412C0 98.09 13.176 65.359 39.529 39.216C65.881 13.072 98.718 0 138.04 0C159.791 0 180.497 4.60099 200.158 13.804C219.816 23.007 236.757 35.973 250.982 52.706C265.204 35.973 282.145 23.007 301.806 13.804C321.464 4.60199 342.17 0 363.924 0C397.806 0 426.249 9.51598 449.256 28.549C472.263 47.583 487.948 71.53 496.315 100.392H442.983C435.454 83.662 424.367 71.112 409.727 62.745C395.087 54.381 379.817 50.198 363.924 50.198C342.589 50.198 324.184 55.947 308.706 67.452C293.229 78.954 278.799 94.118 265.412 112.942H236.55C223.581 94.118 208.839 78.954 192.316 67.452C175.79 55.947 157.699 50.198 138.041 50.198C114.197 50.198 93.596 58.459 76.237 74.982C58.878 91.505 50.197 112.316 50.197 137.413C50.197 151.216 53.125 165.23 58.981 179.451C64.837 193.676 75.294 210.093 90.352 228.705C105.411 247.321 125.909 269.072 151.843 293.961C177.777 318.85 210.822 348.862 250.981 384.001C261.856 374.381 274.614 363.295 289.255 350.745C303.895 338.198 315.608 327.738 324.393 319.374L360.158 355.139C350.954 363.503 339.241 373.857 325.02 386.196C310.799 398.535 298.248 409.516 287.373 419.139L250.982 451.765L250.981 451.764Z" fill="#B58426"/>
</svg>
